<svg width="3950" height="2788" xmlns="http://www.w3.org/2000/svg" xmlns:xlink="http://www.w3.org/1999/xlink" xml:space="preserve" overflow="hidden"><defs><filter id="fx0" x="-10%" y="-10%" width="120%" height="120%" filterUnits="userSpaceOnUse" primitiveUnits="userSpaceOnUse"><feComponentTransfer color-interpolation-filters="sRGB"><feFuncR type="discrete" tableValues="0 0"/><feFuncG type="discrete" tableValues="0 0"/><feFuncB type="discrete" tableValues="0 0"/><feFuncA type="linear" slope="0.431373" intercept="0"/></feComponentTransfer><feGaussianBlur stdDeviation="1.57572 1.57572"/></filter><clipPath id="clip1"><rect x="41" y="33" width="328" height="72"/></clipPath></defs><g transform="translate(88 60)"><text fill="#00B0F0" font-family="MS Gothic,MS Gothic_MSFontService,sans-serif" font-weight="700" font-size="202" transform="matrix(1 0 0 1 32.9996 209)">【</text><text fill="#00B0F0" font-family="MS Gothic,MS Gothic_MSFontService,sans-serif" font-weight="700" font-size="202" transform="matrix(1 0 0 1 235.239 209)">必読</text><text fill="#00B0F0" font-family="MS Gothic,MS Gothic_MSFontService,sans-serif" font-weight="700" font-size="202" transform="matrix(1 0 0 1 639.718 209)">】</text><text font-family="MS Gothic,MS Gothic_MSFontService,sans-serif" font-weight="700" font-size="202" transform="matrix(1 0 0 1 841.958 209)">はじめに</text><text font-family="MS Gothic,MS Gothic_MSFontService,sans-serif" font-weight="700" font-size="92" transform="matrix(1 0 0 1 1650.92 209)">（非表示に設定しています．）</text><path d="M1993.52 1307.18 2025.6 1307.18 2025.6 1371.18 1993.52 1371.18Z" fill-rule="evenodd"/><path d="M2025.6 1307.18 2186.02 1307.18 2186.02 1371.18 2025.6 1371.18Z" fill-rule="evenodd"/><path d="M2186.02 1307.18 2218.1 1307.18 2218.1 1371.18 2186.02 1371.18Z" fill-rule="evenodd"/><text font-family="Wingdings,Wingdings_MSFontService,sans-serif" font-weight="400" font-size="64" transform="matrix(1 0 0 1 33.0004 374)"></text><text font-family="MS Mincho,MS Mincho_MSFontService,sans-serif" font-weight="400" font-size="64" transform="matrix(1 0 0 1 280.5 374)">本スライドは，</text><text font-family="MS Mincho,MS Mincho_MSFontService,sans-serif" font-weight="400" font-size="64" transform="matrix(1 0 0 1 729.667 374)">Template </text><text font-family="MS Mincho,MS Mincho_MSFontService,sans-serif" font-weight="400" font-size="64" transform="matrix(1 0 0 1 1018.42 374)">として利用しているものである．</text><text font-family="Wingdings,Wingdings_MSFontService,sans-serif" font-weight="400" font-size="64" transform="matrix(1 0 0 1 290.813 467)"></text><text font-family="MS Mincho,MS Mincho_MSFontService,sans-serif" font-weight="400" font-size="64" transform="matrix(1 0 0 1 517.688 467)">タイトルの下に下線があるスライド，ないスライドを</text><text font-family="MS Gothic,MS Gothic_MSFontService,sans-serif" font-weight="400" font-size="64" transform="matrix(1 0 0 1 2057.69 467)">主としている</text><text font-family="MS Mincho,MS Mincho_MSFontService,sans-serif" font-weight="400" font-size="64" transform="matrix(1 0 0 1 2442.69 467)">．できる限り，</text><text font-family="MS Gothic,MS Gothic_MSFontService,sans-serif" font-weight="400" font-size="64" transform="matrix(1 0 0 1 2891.85 467)">効果的に使い分けるように</text><text font-family="MS Mincho,MS Mincho_MSFontService,sans-serif" font-weight="400" font-size="64" transform="matrix(1 0 0 1 3661.85 467)">意識</text><text font-family="MS Mincho,MS Mincho_MSFontService,sans-serif" font-weight="400" font-size="64" transform="matrix(1 0 0 1 517.688 544)">すること．</text><text font-family="Wingdings,Wingdings_MSFontService,sans-serif" font-weight="400" font-size="64" transform="matrix(1 0 0 1 290.813 636)"></text><text font-family="MS Gothic,MS Gothic_MSFontService,sans-serif" font-weight="400" font-size="64" transform="matrix(1 0 0 1 517.688 636)">必要ない，使わないスライド</text><text font-family="MS Mincho,MS Mincho_MSFontService,sans-serif" font-weight="400" font-size="64" transform="matrix(1 0 0 1 1351.85 636)">は</text><text font-family="MS Gothic,MS Gothic_MSFontService,sans-serif" font-weight="400" font-size="64" transform="matrix(1 0 0 1 1416.02 636)">，随時</text><text font-family="MS Gothic,MS Gothic_MSFontService,sans-serif" font-weight="400" font-size="64" transform="matrix(1 0 0 1 1608.52 636)">削除</text><text font-family="MS Gothic,MS Gothic_MSFontService,sans-serif" font-weight="400" font-size="64" transform="matrix(1 0 0 1 1736.85 636)">/</text><text font-family="MS Gothic,MS Gothic_MSFontService,sans-serif" font-weight="400" font-size="64" transform="matrix(1 0 0 1 1768.94 636)">非表示</text><text font-family="MS Gothic,MS Gothic_MSFontService,sans-serif" font-weight="400" font-size="64" transform="matrix(1 0 0 1 1961.44 636)">に設定</text><text font-family="MS Gothic,MS Gothic_MSFontService,sans-serif" font-weight="400" font-size="64" transform="matrix(1 0 0 1 2153.94 636)">する</text><text font-family="MS Mincho,MS Mincho_MSFontService,sans-serif" font-weight="400" font-size="64" transform="matrix(1 0 0 1 2282.27 636)">こと</text><text font-family="MS Gothic,MS Gothic_MSFontService,sans-serif" font-weight="400" font-size="64" transform="matrix(1 0 0 1 2410.6 636)">．</text><text font-family="MS Mincho,MS Mincho_MSFontService,sans-serif" font-weight="400" font-size="64" transform="matrix(1 0 0 1 2474.77 636)">非表示設定は</text><text font-family="MS Gothic,MS Gothic_MSFontService,sans-serif" font-weight="400" font-size="64" transform="matrix(1 0 0 1 2859.77 636)">，提出時に削除する</text><text font-family="MS Mincho,MS Mincho_MSFontService,sans-serif" font-weight="400" font-size="64" transform="matrix(1 0 0 1 3437.27 636)">．</text><text fill="#ED7D31" font-family="Wingdings,Wingdings_MSFontService,sans-serif" font-weight="400" font-size="64" transform="matrix(1 0 0 1 33.0004 728)"></text><text fill="#ED7D31" font-family="MS Gothic,MS Gothic_MSFontService,sans-serif" font-weight="400" font-size="64" transform="matrix(1 0 0 1 280.5 728)">スマートフォンやタブレット端末でのスライドの作成は，一切認めない．</text><text fill="#00B0F0" font-family="Wingdings,Wingdings_MSFontService,sans-serif" font-weight="400" font-size="64" transform="matrix(1 0 0 1 33.0004 821)"></text><text font-family="MS Mincho,MS Mincho_MSFontService,sans-serif" font-weight="400" font-size="64" transform="matrix(1 0 0 1 280.5 821)">原稿は，</text><text font-family="MS Gothic,MS Gothic_MSFontService,sans-serif" font-weight="400" font-size="64" transform="matrix(1 0 0 1 537.167 821)">ノートに書き</text><text font-family="MS Gothic,MS Gothic_MSFontService,sans-serif" font-weight="400" font-size="64" transform="matrix(1 0 0 1 922.167 821)">発表者ツールを用いて発表する</text><text font-family="MS Mincho,MS Mincho_MSFontService,sans-serif" font-weight="400" font-size="64" transform="matrix(1 0 0 1 1820.5 821)">こと</text><text font-family="MS Gothic,MS Gothic_MSFontService,sans-serif" font-weight="400" font-size="64" transform="matrix(1 0 0 1 1948.83 821)">．</text><text fill="#00B0F0" font-family="MS Gothic,MS Gothic_MSFontService,sans-serif" font-weight="400" font-size="64" transform="matrix(1 0 0 1 2013 821)">紙の原稿を丸読みする行為は，極力控えること．</text><text font-family="Wingdings,Wingdings_MSFontService,sans-serif" font-weight="400" font-size="64" transform="matrix(1 0 0 1 33.0004 913)"></text><text font-family="MS Mincho,MS Mincho_MSFontService,sans-serif" font-weight="400" font-size="64" transform="matrix(1 0 0 1 280.5 913)">文字の書式設定は，</text><text font-family="MS Gothic,MS Gothic_MSFontService,sans-serif" font-weight="400" font-size="64" transform="matrix(1 0 0 1 858 913)">タイトルが</text><text font-family="MS Gothic,MS Gothic_MSFontService,sans-serif" font-weight="400" font-size="64" transform="matrix(1 0 0 1 1210.92 913)">MS Gothic</text><text font-family="MS Gothic,MS Gothic_MSFontService,sans-serif" font-weight="400" font-size="64" transform="matrix(1 0 0 1 1499.67 913)">，</text><text font-family="MS Gothic,MS Gothic_MSFontService,sans-serif" font-weight="400" font-size="64" transform="matrix(1 0 0 1 1563.83 913)">44 pt </text><text font-family="MS Gothic,MS Gothic_MSFontService,sans-serif" font-weight="400" font-size="64" transform="matrix(1 0 0 1 1756.33 913)">の太字</text><text font-family="MS Mincho,MS Mincho_MSFontService,sans-serif" font-weight="400" font-size="64" transform="matrix(1 0 0 1 1948.83 913)">，</text><text font-family="MS Gothic,MS Gothic_MSFontService,sans-serif" font-weight="400" font-size="64" transform="matrix(1 0 0 1 2013 913)">説明が</text><text font-family="MS Gothic,MS Gothic_MSFontService,sans-serif" font-weight="400" font-size="64" transform="matrix(1 0 0 1 2237.58 913)">MS Gothic</text><text font-family="MS Gothic,MS Gothic_MSFontService,sans-serif" font-weight="400" font-size="64" transform="matrix(1 0 0 1 2526.33 913)">，</text><text font-family="MS Gothic,MS Gothic_MSFontService,sans-serif" font-weight="400" font-size="64" transform="matrix(1 0 0 1 2590.5 913)">54 pt </text><text font-family="MS Gothic,MS Gothic_MSFontService,sans-serif" font-weight="400" font-size="64" transform="matrix(1 0 0 1 2783 913)">の標準字</text><text font-family="MS Mincho,MS Mincho_MSFontService,sans-serif" font-weight="400" font-size="64" transform="matrix(1 0 0 1 3039.67 913)">（</text><text font-family="MS Gothic,MS Gothic_MSFontService,sans-serif" font-weight="700" font-size="64" transform="matrix(1 0 0 1 3103.83 913)">太字</text><text font-family="MS Mincho,MS Mincho_MSFontService,sans-serif" font-weight="400" font-size="64" transform="matrix(1 0 0 1 3232.17 913)">や</text><text font-family="MS Gothic,MS Gothic_MSFontService,sans-serif" font-style="oblique" font-weight="400" font-size="64" transform="matrix(1 0 0 1 3296.33 913)">斜体</text><text font-family="MS Mincho,MS Mincho_MSFontService,sans-serif" font-weight="400" font-size="64" transform="matrix(1 0 0 1 3424.67 913)">ではない），</text><text font-family="MS Mincho,MS Mincho_MSFontService,sans-serif" font-weight="400" font-size="64" transform="matrix(1 0 0 1 280.5 983)">URL </text><text font-family="MS Mincho,MS Mincho_MSFontService,sans-serif" font-weight="400" font-size="64" transform="matrix(1 0 0 1 408.834 983)">が</text><text font-family="Courier New,Courier New_MSFontService,sans-serif" font-weight="400" font-size="64" transform="matrix(1 0 0 1 505.084 983)">Courier New</text><text font-family="MS Mincho,MS Mincho_MSFontService,sans-serif" font-weight="400" font-size="64" transform="matrix(1 0 0 1 927.323 983)">，</text><text font-family="MS Mincho,MS Mincho_MSFontService,sans-serif" font-weight="400" font-size="64" transform="matrix(1 0 0 1 991.49 983)">14 pt </text><text font-family="MS Mincho,MS Mincho_MSFontService,sans-serif" font-weight="400" font-size="64" transform="matrix(1 0 0 1 1183.99 983)">の標準字に設定している．</text><text font-family="Wingdings,Wingdings_MSFontService,sans-serif" font-weight="400" font-size="64" transform="matrix(1 0 0 1 290.813 1083)"></text><text font-family="MS Mincho,MS Mincho_MSFontService,sans-serif" font-weight="400" font-size="64" transform="matrix(1 0 0 1 517.688 1083)">タイトルは入りきらなかった場合のみ，</text><text font-family="MS Mincho,MS Mincho_MSFontService,sans-serif" font-weight="400" font-size="64" transform="matrix(1 0 0 1 1672.69 1083)">1 pt</text><text font-family="MS Mincho,MS Mincho_MSFontService,sans-serif" font-weight="400" font-size="64" transform="matrix(1 0 0 1 1801.02 1083)">ずつ小さくし</text><text font-family="MS Gothic,MS Gothic_MSFontService,sans-serif" font-weight="400" font-size="64" transform="matrix(1 0 0 1 2186.02 1083)">ギリギリ入り切るところまで</text><text font-family="MS Mincho,MS Mincho_MSFontService,sans-serif" font-weight="400" font-size="64" transform="matrix(1 0 0 1 3020.19 1083)">にすること．</text><text font-family="Wingdings,Wingdings_MSFontService,sans-serif" font-weight="400" font-size="64" transform="matrix(1 0 0 1 290.813 1175)"></text><text font-family="MS Mincho,MS Mincho_MSFontService,sans-serif" font-weight="400" font-size="64" transform="matrix(1 0 0 1 517.688 1175)">説明の文字は，</text><text font-family="MS Gothic,MS Gothic_MSFontService,sans-serif" font-weight="400" font-size="64" transform="matrix(1 0 0 1 966.854 1175)">自由に移動や大きさの変更をしても良い</text><text font-family="MS Mincho,MS Mincho_MSFontService,sans-serif" font-weight="400" font-size="64" transform="matrix(1 0 0 1 2121.85 1175)">．ただし，</text><text font-family="MS Gothic,MS Gothic_MSFontService,sans-serif" font-style="oblique" font-weight="400" font-size="64" transform="matrix(1 0 0 1 2442.69 1175)">斜体</text><text font-family="MS Mincho,MS Mincho_MSFontService,sans-serif" font-weight="400" font-size="64" transform="matrix(1 0 0 1 2571.02 1175)">や</text><g clip-path="url(#clip1)" filter="url(#fx0)" transform="translate(2594 1087)"><g><path d="M32.75-10C24.4167-2.83333 15.8333 2.08333 7 4.75L4.75-1.25C13.5833-3.75 21.5-8 28.5-14 22.6667-20.3333 18.75-27.6667 16.75-36L4.75-36 4.75-40.75 28.75-40.75 28.75-50.25 34.25-50.25C35.9167-49.9167 36-49.25 34.5-48.25L34.5-40.75 58.75-40.75 58.75-36 47-36C45.6667-28.1667 42.1667-20.8333 36.5-14 42.3333-8.83333 50.0833-5 59.75-2.5L57.5 3.5C49 1.33333 40.75-3.16667 32.75-10ZM32.5-18C37.5-24 40.5833-30 41.75-36L22.25-36C23.25-30.3333 26.6667-24.3333 32.5-18ZM99.1667-22.5 99.1667-19.25 123.667-19.25 123.667-14.5 99.1667-14.5 99.1667 0C99.1667 2.66667 97.8333 4 95.1667 4L88.4167 4 87.1667-0.75 93.1667-0.75C93.8333-0.75 94.1667-1.08333 94.1667-1.75L94.1667-14.5 68.1667-14.5 68.1667-19.25 94.1667-19.25 94.1667-25.75 96.6667-25.25 103.667-30 79.6667-30 79.6667-34.75 108.667-34.75 109.667-35.75 113.917-31.5 112.417-31ZM98.9167-44.75 122.167-44.75 122.167-32.25 117.167-32.25 117.167-40 74.9167-40 74.9167-31.75 69.9167-31.75 69.9167-44.75 93.1667-44.75 93.1667-51.5 98.6667-51.5C100.333-51.1667 100.417-50.5 98.9167-49.5ZM162.833-35.25C160-18.5833 156.583-8.25 152.583-4.25 150.417-2.08333 148.167-1 145.833-1 143.167-1 141.083-1.75 139.583-3.25 135.583-7.25 133.583-12.25 133.583-18.25 133.583-25.5833 136.167-31.8333 141.333-37 147-42.6667 153.917-45.5 162.083-45.5 169.417-45.5 175.167-43.4167 179.333-39.25 184-34.5833 186.333-29.0833 186.333-22.75 186.333-15.9167 184.167-10.3333 179.833-6 177-3.16667 172.667-0.416667 166.833 2.25L161.583-3C167.417-4.83333 172-7.41667 175.333-10.75 178.5-13.9167 180.083-17.75 180.083-22.25 180.083-27.5833 178.333-32 174.833-35.5 171.333-39 165.833-40.5833 158.333-40.25L162.833-38C164.833-37.1667 164.833-36.25 162.833-35.25ZM157.083-40C152.75-39 149-36.9167 145.833-33.75 141.5-29.4167 139.333-24.0833 139.333-17.75 139.333-13.9167 140.583-10.75 143.083-8.25 143.583-7.75 144.333-7.5 145.333-7.5 146.333-7.5 147.417-8.08333 148.583-9.25 152.417-13.0833 155.25-23.3333 157.083-40ZM234.75-31.5 229-31.5 229-36.25 234.75-36.25 234.75-50 239.5-50C240.833-49.8333 240.917-49.3333 239.75-48.5L239.75-36.25 251.25-36.25 250.75-2.75C250.75 2.25 248.833 4.75 245 4.75L237.5 4.75 236.75-0.75 243.25-0.75C244.917-0.75 245.75-1.83333 245.75-4L246.25-31.5 239.75-31.5 239.75-27C239.75-12.1667 233-1.25 219.5 5.75L217 0.5C228.833-4.83333 234.75-14.75 234.75-29.25ZM195.25-0.75C201.25-4.41667 206.083-8.33333 209.75-12.5 207.75-14.5 205.667-16.4167 203.5-18.25L206.75-22C208.75-20.5 210.75-18.9167 212.75-17.25 214.083-19.25 215.417-21.9167 216.75-25.25L221.75-21.75C221.917-20.9167 221.5-20.6667 220.5-21 219.333-18.3333 218-15.8333 216.5-13.5 219.167-11 221.083-8.83333 222.25-7L218-3C217-4.66667 215.5-6.58333 213.5-8.75 209.167-3.58333 204.083 0.666667 198.25 4ZM210.5-31C207.333-27.1667 203.667-23.8333 199.5-21L195.75-25C200.583-28.3333 204.417-31.9167 207.25-35.75L211.75-31.75C211.917-30.9167 211.5-30.6667 210.5-31ZM229-37.75 197-37.75 197-42.5 210.5-42.5 210.5-51.75 215.25-51.75C216.583-51.5833 216.667-51.0833 215.5-50.25L215.5-42.5 229-42.5ZM225-22.5C223-25.3333 219.917-28.6667 215.75-32.5L219.5-36.25C223.5-33.0833 226.667-29.8333 229-26.5ZM261.417-15.25 261.417-20 286.167-20 286.167-25.5 273.417-25.5 273.417-23.25 268.417-23.25 268.417-50 308.667-50 308.667-23.75 303.667-23.75 303.667-25.5 291.167-25.5 291.167-20 315.417-20 315.417-15.25 292.417-15.25C298.75-9.08333 306.75-4.66667 316.417-2L314.167 3.75C303.667-0.25 296-5 291.167-10.5L291.167 6 286.167 6 286.167-10.25C281.5-3.91667 274 0.833333 263.667 4L260.917-1.5C271.75-4.16667 279.75-8.75 284.917-15.25ZM273.417-35.25 273.417-30.25 286.167-30.25 286.167-35.25ZM273.417-45.25 273.417-40 286.167-40 286.167-45.25ZM303.667-45.25 291.167-45.25 291.167-40 303.667-40ZM303.667-35.25 291.167-35.25 291.167-30.25 303.667-30.25Z" transform="matrix(1 0 0 1 44.5303 92)"/></g></g><text font-family="MS Gothic,MS Gothic_MSFontService,sans-serif" font-weight="400" font-size="64" transform="matrix(1 0 0 1 2635.19 1175)">文字の効果</text><text font-family="MS Mincho,MS Mincho_MSFontService,sans-serif" font-weight="400" font-size="64" transform="matrix(1 0 0 1 2956.02 1175)">の利用は控えること．</text><text font-family="Wingdings,Wingdings_MSFontService,sans-serif" font-weight="400" font-size="64" transform="matrix(1 0 0 1 290.813 1267)"></text><text font-family="MS Mincho,MS Mincho_MSFontService,sans-serif" font-weight="400" font-size="64" transform="matrix(1 0 0 1 517.688 1267)">強調の際の文字色に関しては，</text><text fill="#00B0F0" font-family="MS Gothic,MS Gothic_MSFontService,sans-serif" font-weight="400" font-size="64" transform="matrix(1 0 0 1 1416.02 1267)">cyan </text><text font-family="MS Mincho,MS Mincho_MSFontService,sans-serif" font-weight="400" font-size="64" transform="matrix(1 0 0 1 1576.44 1267)">か</text><text fill="#ED7D31" font-family="MS Gothic,MS Gothic_MSFontService,sans-serif" font-weight="400" font-size="64" transform="matrix(1 0 0 1 1672.69 1267)">orange </text><text font-family="MS Mincho,MS Mincho_MSFontService,sans-serif" font-weight="400" font-size="64" transform="matrix(1 0 0 1 1897.27 1267)">の</text><text font-family="MS Mincho,MS Mincho_MSFontService,sans-serif" font-weight="400" font-size="64" transform="matrix(1 0 0 1 1993.52 1267)">2 </text><text font-family="MS Mincho,MS Mincho_MSFontService,sans-serif" font-weight="400" font-size="64" transform="matrix(1 0 0 1 2057.69 1267)">色にし，</text><text font-family="MS Gothic,MS Gothic_MSFontService,sans-serif" font-weight="400" font-size="64" transform="matrix(1 0 0 1 2314.35 1267)">それ以外は利用しない</text><text font-family="MS Mincho,MS Mincho_MSFontService,sans-serif" font-weight="400" font-size="64" transform="matrix(1 0 0 1 2956.02 1267)">こと（色盲の方への配慮）．</text><text font-family="Wingdings,Wingdings_MSFontService,sans-serif" font-weight="400" font-size="64" transform="matrix(1 0 0 1 290.813 1360)"></text><text font-family="MS Mincho,MS Mincho_MSFontService,sans-serif" font-weight="400" font-size="64" transform="matrix(1 0 0 1 517.688 1360)">背景に写真を入れる場合には，文字色は</text><text font-family="MS Gothic,MS Gothic_MSFontService,sans-serif" font-weight="400" font-size="64" transform="matrix(1 0 0 1 1704.77 1360)">black</text><text font-family="MS Mincho,MS Mincho_MSFontService,sans-serif" font-weight="400" font-size="64" transform="matrix(1 0 0 1 1897.27 1360)">か</text><text font-family="MS Mincho,MS Mincho_MSFontService,sans-serif" font-weight="400" font-size="64" transform="matrix(1 0 0 1 1993.52 1360)"> </text><text fill="#FFFFFF" font-family="MS Gothic,MS Gothic_MSFontService,sans-serif" font-weight="400" font-size="64" transform="matrix(1 0 0 1 2025.6 1360)">white</text><text font-family="MS Mincho,MS Mincho_MSFontService,sans-serif" font-weight="400" font-size="64" transform="matrix(1 0 0 1 2186.02 1360)"> </text><text font-family="MS Mincho,MS Mincho_MSFontService,sans-serif" font-weight="400" font-size="64" transform="matrix(1 0 0 1 2250.19 1360)">にし，</text><text font-family="MS Gothic,MS Gothic_MSFontService,sans-serif" font-weight="400" font-size="64" transform="matrix(1 0 0 1 2442.69 1360)">見やすい方を適応する</text><text font-family="MS Mincho,MS Mincho_MSFontService,sans-serif" font-weight="400" font-size="64" transform="matrix(1 0 0 1 3084.35 1360)">こと．</text><text font-family="Wingdings,Wingdings_MSFontService,sans-serif" font-weight="400" font-size="64" transform="matrix(1 0 0 1 290.813 1452)"></text><text font-family="MS Mincho,MS Mincho_MSFontService,sans-serif" font-weight="400" font-size="64" transform="matrix(1 0 0 1 517.688 1452)">URL</text><text font-family="MS Mincho,MS Mincho_MSFontService,sans-serif" font-weight="400" font-size="64" transform="matrix(1 0 0 1 613.938 1452)">は参考文献と写真を挿入した場合の</text><text font-family="MS Gothic,MS Gothic_MSFontService,sans-serif" font-weight="400" font-size="64" transform="matrix(1 0 0 1 1640.6 1452)">出典を必ず記す</text><text font-family="MS Mincho,MS Mincho_MSFontService,sans-serif" font-weight="400" font-size="64" transform="matrix(1 0 0 1 2089.77 1452)">．ない場合は，</text><text font-family="MS Gothic,MS Gothic_MSFontService,sans-serif" font-weight="400" font-size="64" transform="matrix(1 0 0 1 2538.94 1452)">テキストボックスを削除する</text><text font-family="MS Mincho,MS Mincho_MSFontService,sans-serif" font-weight="400" font-size="64" transform="matrix(1 0 0 1 3373.1 1452)">こと．</text><text font-family="Wingdings,Wingdings_MSFontService,sans-serif" font-weight="400" font-size="64" transform="matrix(1 0 0 1 33.0004 1545)"></text><text font-family="MS Mincho,MS Mincho_MSFontService,sans-serif" font-weight="400" font-size="64" transform="matrix(1 0 0 1 290.813 1545)">スライドやフォントは，</text><text font-family="MS Gothic,MS Gothic_MSFontService,sans-serif" font-weight="400" font-size="64" transform="matrix(1 0 0 1 996.646 1545)">設定されたもの以外利用しない</text><text font-family="MS Mincho,MS Mincho_MSFontService,sans-serif" font-weight="400" font-size="64" transform="matrix(1 0 0 1 1894.98 1545)">こと（互換性の問題）．</text><text font-family="Wingdings,Wingdings_MSFontService,sans-serif" font-weight="400" font-size="64" transform="matrix(1 0 0 1 33.0004 1637)"></text><text font-family="MS Mincho,MS Mincho_MSFontService,sans-serif" font-weight="400" font-size="64" transform="matrix(1 0 0 1 290.813 1637)">画像の拡張子は，ラスタ形式</text><text font-family="MS Mincho,MS Mincho_MSFontService,sans-serif" font-weight="400" font-size="64" transform="matrix(1 0 0 1 1124.98 1637)">: </text><text font-family="MS Gothic,MS Gothic_MSFontService,sans-serif" font-weight="400" font-size="64" transform="matrix(1 0 0 1 1189.15 1637)">JPG</text><text font-family="MS Mincho,MS Mincho_MSFontService,sans-serif" font-weight="400" font-size="64" transform="matrix(1 0 0 1 1285.4 1637)">（</text><text font-family="MS Mincho,MS Mincho_MSFontService,sans-serif" font-weight="400" font-size="64" transform="matrix(1 0 0 1 1349.56 1637)">JPEG</text><text font-family="MS Mincho,MS Mincho_MSFontService,sans-serif" font-weight="400" font-size="64" transform="matrix(1 0 0 1 1477.9 1637)">），</text><text font-family="MS Gothic,MS Gothic_MSFontService,sans-serif" font-weight="400" font-size="64" transform="matrix(1 0 0 1 1606.23 1637)">PNG</text><text font-family="MS Gothic,MS Gothic_MSFontService,sans-serif" font-weight="400" font-size="64" transform="matrix(1 0 0 1 1702.48 1637)">，</text><text font-family="MS Mincho,MS Mincho_MSFontService,sans-serif" font-weight="400" font-size="64" transform="matrix(1 0 0 1 1766.65 1637)">GIF</text><text font-family="MS Mincho,MS Mincho_MSFontService,sans-serif" font-weight="400" font-size="64" transform="matrix(1 0 0 1 1862.9 1637)">，ベクタ形式</text><text font-family="MS Mincho,MS Mincho_MSFontService,sans-serif" font-weight="400" font-size="64" transform="matrix(1 0 0 1 2247.9 1637)">: </text><text font-family="MS Mincho,MS Mincho_MSFontService,sans-serif" font-weight="400" font-size="64" transform="matrix(1 0 0 1 2312.06 1637)">SVG </text><text font-family="MS Mincho,MS Mincho_MSFontService,sans-serif" font-weight="400" font-size="64" transform="matrix(1 0 0 1 2440.4 1637)">を利用すること</text><text font-family="MS Mincho,MS Mincho_MSFontService,sans-serif" font-weight="400" font-size="64" transform="matrix(1 0 0 1 2889.56 1637)">．</text><text font-family="Wingdings,Wingdings_MSFontService,sans-serif" font-weight="400" font-size="64" transform="matrix(1 0 0 1 33.0004 1729)"></text><text font-family="MS Mincho,MS Mincho_MSFontService,sans-serif" font-weight="400" font-size="64" transform="matrix(1 0 0 1 290.813 1729)">その他，守るべき項目を次に列挙する．</text><text font-family="Wingdings,Wingdings_MSFontService,sans-serif" font-weight="400" font-size="64" transform="matrix(1 0 0 1 290.813 1822)"></text><text font-family="MS Gothic,MS Gothic_MSFontService,sans-serif" font-weight="400" font-size="64" transform="matrix(1 0 0 1 517.688 1822)">1 section </text><text font-family="MS Gothic,MS Gothic_MSFontService,sans-serif" font-weight="400" font-size="64" transform="matrix(1 0 0 1 838.521 1822)">-</text><text font-family="MS Gothic,MS Gothic_MSFontService,sans-serif" font-weight="400" font-size="64" transform="matrix(1 0 0 1 902.688 1822)">1 message</text><text font-family="MS Mincho,MS Mincho_MSFontService,sans-serif" font-weight="400" font-size="64" transform="matrix(1 0 0 1 679.25 1914)">1 </text><text font-family="MS Mincho,MS Mincho_MSFontService,sans-serif" font-weight="400" font-size="64" transform="matrix(1 0 0 1 743.417 1914)">つのセクションで伝えたいことは，</text><text font-family="MS Gothic,MS Gothic_MSFontService,sans-serif" font-weight="400" font-size="64" transform="matrix(1 0 0 1 1770.08 1914)">1 </text><text font-family="MS Gothic,MS Gothic_MSFontService,sans-serif" font-weight="400" font-size="64" transform="matrix(1 0 0 1 1834.25 1914)">つに絞る</text><text font-family="MS Mincho,MS Mincho_MSFontService,sans-serif" font-weight="400" font-size="64" transform="matrix(1 0 0 1 2090.92 1914)">こと．たくさん詰め込むと，本来の伝えたいことが曖昧にな</text><text font-family="MS Mincho,MS Mincho_MSFontService,sans-serif" font-weight="400" font-size="64" transform="matrix(1 0 0 1 679.25 1991)">り，</text><text font-family="MS Gothic,MS Gothic_MSFontService,sans-serif" font-weight="400" font-size="64" transform="matrix(1 0 0 1 807.584 1991)">意図や本質が伝わらなくなる</text><text font-family="MS Mincho,MS Mincho_MSFontService,sans-serif" font-weight="400" font-size="64" transform="matrix(1 0 0 1 1641.75 1991)">．</text><text font-family="Wingdings,Wingdings_MSFontService,sans-serif" font-weight="400" font-size="64" transform="matrix(1 0 0 1 290.813 2084)"></text><text font-family="MS Gothic,MS Gothic_MSFontService,sans-serif" font-weight="400" font-size="64" transform="matrix(1 0 0 1 517.688 2084)">1 slide </text><text font-family="MS Gothic,MS Gothic_MSFontService,sans-serif" font-weight="400" font-size="64" transform="matrix(1 0 0 1 774.354 2084)">-</text><text font-family="MS Gothic,MS Gothic_MSFontService,sans-serif" font-weight="400" font-size="64" transform="matrix(1 0 0 1 838.521 2084)">30% contents</text><text font-family="MS Mincho,MS Mincho_MSFontService,sans-serif" font-weight="400" font-size="64" transform="matrix(1 0 0 1 679.25 2176)">1 </text><text font-family="MS Mincho,MS Mincho_MSFontService,sans-serif" font-weight="400" font-size="64" transform="matrix(1 0 0 1 743.417 2176)">つのスライドに，</text><text font-family="MS Gothic,MS Gothic_MSFontService,sans-serif" font-weight="400" font-size="64" transform="matrix(1 0 0 1 1256.75 2176)">30% </text><text font-family="MS Gothic,MS Gothic_MSFontService,sans-serif" font-weight="400" font-size="64" transform="matrix(1 0 0 1 1385.08 2176)">の内容しか載せない</text><text font-family="MS Mincho,MS Mincho_MSFontService,sans-serif" font-weight="400" font-size="64" transform="matrix(1 0 0 1 1962.58 2176)">こと．発表においてスライドは，口頭説明を</text><text font-family="MS Gothic,MS Gothic_MSFontService,sans-serif" font-weight="400" font-size="64" transform="matrix(1 0 0 1 3245.92 2176)">模式的に表現したも</text><text font-family="MS Gothic,MS Gothic_MSFontService,sans-serif" font-weight="400" font-size="64" transform="matrix(1 0 0 1 679.25 2253)">の</text><text font-family="MS Mincho,MS Mincho_MSFontService,sans-serif" font-weight="400" font-size="64" transform="matrix(1 0 0 1 743.417 2253)">であり，補助的なものである．スライドだけで完成してしまうのであれば，わざわざ発表するまでもないだ</text><text font-family="MS Mincho,MS Mincho_MSFontService,sans-serif" font-weight="400" font-size="64" transform="matrix(1 0 0 1 679.25 2330)">ろう．</text><text font-family="Wingdings,Wingdings_MSFontService,sans-serif" font-weight="400" font-size="64" transform="matrix(1 0 0 1 290.813 2422)"></text><text font-family="MS Gothic,MS Gothic_MSFontService,sans-serif" font-weight="400" font-size="64" transform="matrix(1 0 0 1 517.688 2422)">Divide and conquer</text><text font-family="MS Mincho,MS Mincho_MSFontService,sans-serif" font-weight="400" font-size="64" transform="matrix(1 0 0 1 679.25 2515)">説明と図は</text><text font-family="MS Gothic,MS Gothic_MSFontService,sans-serif" font-weight="400" font-size="64" transform="matrix(1 0 0 1 1000.08 2515)">できるだけスライドごと分ける</text><text font-family="MS Mincho,MS Mincho_MSFontService,sans-serif" font-weight="400" font-size="64" transform="matrix(1 0 0 1 1898.42 2515)">こと．説明していない内容が目に入るだけで，</text><text font-family="MS Gothic,MS Gothic_MSFontService,sans-serif" font-weight="400" font-size="64" transform="matrix(1 0 0 1 3245.92 2515)">内容が複雑化し</text><text font-family="MS Mincho,MS Mincho_MSFontService,sans-serif" font-weight="400" font-size="64" transform="matrix(1 0 0 1 3695.08 2515)">理解</text><text font-family="MS Mincho,MS Mincho_MSFontService,sans-serif" font-weight="400" font-size="64" transform="matrix(1 0 0 1 679.25 2592)">が追い付かなくなる場合が多々ある．そのため，アニメーションやスライドを分けたりして，</text><text font-family="MS Gothic,MS Gothic_MSFontService,sans-serif" font-weight="400" font-size="64" transform="matrix(1 0 0 1 3374.25 2592)">今話していると</text><text font-family="MS Gothic,MS Gothic_MSFontService,sans-serif" font-weight="400" font-size="64" transform="matrix(1 0 0 1 679.25 2669)">ころを明確化する</text><text font-family="MS Mincho,MS Mincho_MSFontService,sans-serif" font-weight="400" font-size="64" transform="matrix(1 0 0 1 1192.58 2669)">必要がある．</text></g></svg>